<svg width="173" height="174" viewBox="0 0 173 174" fill="none" xmlns="http://www.w3.org/2000/svg">
<path d="M47.5016 61.721C47.5016 63.9294 46.8447 66.0882 45.6139 67.9244C44.3832 69.7606 42.6339 71.1918 40.5872 72.0369C38.5405 72.882 36.2884 73.1031 34.1157 72.6723C31.943 72.2415 29.9472 71.178 28.3807 69.6164C26.8143 68.0549 25.7475 66.0653 25.3153 63.8994C24.8831 61.7334 25.1049 59.4883 25.9527 57.448C26.8005 55.4077 28.2361 53.6639 30.0781 52.437C31.92 51.21 34.0856 50.5552 36.3009 50.5552C39.2715 50.5552 42.1204 51.7316 44.221 53.8256C46.3215 55.9196 47.5016 58.7596 47.5016 61.721Z" fill="#042A3C"/>
<path d="M147.9 61.721C147.9 63.9294 147.243 66.0882 146.012 67.9244C144.781 69.7606 143.032 71.1918 140.985 72.0369C138.939 72.882 136.687 73.1031 134.514 72.6723C132.341 72.2415 130.345 71.178 128.779 69.6164C127.212 68.0549 126.146 66.0653 125.714 63.8994C125.281 61.7334 125.503 59.4883 126.351 57.448C127.199 55.4077 128.634 53.6639 130.476 52.437C132.318 51.21 134.484 50.5552 136.699 50.5552C139.67 50.5552 142.519 51.7316 144.619 53.8256C146.72 55.9196 147.9 58.7596 147.9 61.721Z" fill="#042A3C"/>
<path d="M97.7008 11.1658C97.7008 13.3742 97.0439 15.533 95.8132 17.3692C94.5824 19.2054 92.8331 20.6366 90.7864 21.4817C88.7398 22.3268 86.4877 22.548 84.3149 22.1171C82.1422 21.6863 80.1464 20.6228 78.58 19.0613C77.0135 17.4997 75.9467 15.5101 75.5145 13.3442C75.0824 11.1782 75.3042 8.93314 76.1519 6.89285C76.9997 4.85256 78.4353 3.1087 80.2773 1.88178C82.1192 0.654864 84.2848 0 86.5001 0C89.4707 0 92.3197 1.1764 94.4202 3.2704C96.5208 5.3644 97.7008 8.20447 97.7008 11.1658Z" fill="#042A3C"/>
<path d="M72.6005 11.1658C72.6005 13.374 71.9437 15.5326 70.7132 17.3687C69.4827 19.2048 67.7337 20.6359 65.6873 21.4812C63.641 22.3265 61.3892 22.5479 59.2166 22.1175C57.044 21.6871 55.0482 20.6242 53.4815 19.0632C51.9149 17.5021 50.8477 15.5131 50.4149 13.3475C49.9821 11.1819 50.2031 8.93697 51.05 6.89659C51.897 4.85621 53.3318 3.11197 55.173 1.8844C57.0142 0.656838 59.1793 0.00106726 61.3943 0C64.365 0 67.2139 1.1764 69.3145 3.2704C71.415 5.3644 72.5951 8.20447 72.5951 11.1658" fill="#042A3C"/>
<path d="M122.801 11.1658C122.801 13.3745 122.144 15.5335 120.913 17.3698C119.682 19.2061 117.932 20.6373 115.885 21.4822C113.838 22.3272 111.586 22.548 109.413 22.1167C107.24 21.6854 105.244 20.6215 103.678 19.0594C102.112 17.4972 101.046 15.5072 100.614 13.3409C100.182 11.1746 100.405 8.92931 101.254 6.88912C102.102 4.84892 103.539 3.10543 105.381 1.87916C107.224 0.652892 109.39 -0.00106618 111.606 1.30479e-06C114.576 1.30479e-06 117.425 1.1764 119.526 3.2704C121.626 5.3644 122.806 8.20447 122.806 11.1658" fill="#042A3C"/>
<path d="M97.7008 36.4482C97.7008 38.6566 97.0439 40.8154 95.8132 42.6516C94.5824 44.4878 92.8331 45.919 90.7864 46.7641C88.7398 47.6092 86.4877 47.8303 84.3149 47.3995C82.1422 46.9686 80.1464 45.9052 78.58 44.3436C77.0135 42.782 75.9467 40.7925 75.5145 38.6265C75.0824 36.4606 75.3042 34.2155 76.1519 32.1752C76.9997 30.1349 78.4353 28.391 80.2773 27.1641C82.1192 25.9372 84.2848 25.2823 86.5001 25.2823C89.4707 25.2823 92.3197 26.4587 94.4202 28.5527C96.5208 30.6467 97.7008 33.4868 97.7008 36.4482Z" fill="#042A3C"/>
<path d="M72.6005 137.556C72.6005 139.764 71.9437 141.923 70.7132 143.759C69.4827 145.595 67.7337 147.026 65.6873 147.871C63.641 148.716 61.3892 148.938 59.2166 148.508C57.044 148.077 55.0482 147.014 53.4815 145.453C51.9149 143.892 50.8477 141.903 50.4149 139.737C49.9821 137.572 50.2031 135.327 51.05 133.287C51.897 131.246 53.3318 129.502 55.173 128.274C57.0142 127.047 59.1793 126.391 61.3943 126.39C64.365 126.39 67.2139 127.566 69.3145 129.66C71.415 131.754 72.5951 134.594 72.5951 137.556" fill="#042A3C"/>
<path d="M47.5016 112.272C47.5016 114.481 46.8447 116.639 45.6139 118.476C44.3832 120.312 42.6339 121.743 40.5872 122.588C38.5405 123.433 36.2884 123.654 34.1157 123.223C31.943 122.793 29.9472 121.729 28.3807 120.168C26.8143 118.606 25.7475 116.616 25.3153 114.45C24.8831 112.285 25.1049 110.039 25.9527 107.999C26.8005 105.959 28.2361 104.215 30.0781 102.988C31.92 101.761 34.0856 101.106 36.3009 101.106C39.2715 101.106 42.1204 102.283 44.221 104.377C46.3215 106.471 47.5016 109.311 47.5016 112.272Z" fill="#042A3C"/>
<path d="M47.5016 137.556C47.5016 139.764 46.8447 141.923 45.6139 143.759C44.3832 145.595 42.6339 147.027 40.5872 147.872C38.5405 148.717 36.2884 148.938 34.1157 148.507C31.943 148.076 29.9472 147.013 28.3807 145.451C26.8143 143.89 25.7475 141.9 25.3153 139.734C24.8831 137.568 25.1049 135.323 25.9527 133.283C26.8005 131.243 28.2361 129.499 30.0781 128.272C31.92 127.045 34.0856 126.39 36.3009 126.39C39.2714 126.39 42.1201 127.567 44.2206 129.661C46.3211 131.755 47.5013 134.595 47.5016 137.556Z" fill="#042A3C"/>
<path d="M22.4015 112.272C22.4015 114.481 21.7446 116.639 20.5138 118.476C19.2831 120.312 17.5338 121.743 15.4871 122.588C13.4404 123.433 11.1883 123.654 9.0156 123.223C6.84287 122.793 4.84708 121.729 3.28063 120.168C1.71418 118.606 0.647408 116.616 0.215224 114.45C-0.21696 112.285 0.00485453 110.039 0.852613 107.999C1.70037 105.959 3.136 104.215 4.97795 102.988C6.81991 101.761 8.98546 101.106 11.2008 101.106C14.1714 101.106 17.0203 102.283 19.1209 104.377C21.2214 106.471 22.4015 109.311 22.4015 112.272Z" fill="#042A3C"/>
<path d="M97.7008 137.556C97.7008 139.764 97.0439 141.923 95.8132 143.759C94.5824 145.595 92.8331 147.027 90.7864 147.872C88.7398 148.717 86.4877 148.938 84.3149 148.507C82.1422 148.076 80.1464 147.013 78.58 145.451C77.0135 143.89 75.9467 141.9 75.5145 139.734C75.0824 137.568 75.3042 135.323 76.1519 133.283C76.9997 131.243 78.4353 129.499 80.2773 128.272C82.1192 127.045 84.2848 126.39 86.5001 126.39C89.4707 126.39 92.3197 127.566 94.4202 129.66C96.5208 131.754 97.7008 134.594 97.7008 137.556Z" fill="#042A3C"/>
<path d="M122.801 137.556C122.801 139.764 122.144 141.923 120.913 143.759C119.683 145.595 117.933 147.027 115.887 147.872C113.84 148.717 111.588 148.938 109.415 148.507C107.242 148.076 105.246 147.013 103.68 145.451C102.114 143.89 101.047 141.9 100.615 139.734C100.182 137.568 100.404 135.323 101.252 133.283C102.1 131.243 103.535 129.499 105.377 128.272C107.219 127.045 109.385 126.39 111.6 126.39C114.571 126.39 117.419 127.567 119.52 129.661C121.62 131.755 122.801 134.595 122.801 137.556Z" fill="#042A3C"/>
<path d="M147.9 112.272C147.9 114.481 147.243 116.639 146.012 118.476C144.781 120.312 143.032 121.743 140.985 122.588C138.939 123.433 136.687 123.654 134.514 123.223C132.341 122.793 130.345 121.729 128.779 120.168C127.212 118.606 126.146 116.616 125.714 114.45C125.281 112.285 125.503 110.039 126.351 107.999C127.199 105.959 128.634 104.215 130.476 102.988C132.318 101.761 134.484 101.106 136.699 101.106C139.67 101.106 142.519 102.283 144.619 104.377C146.72 106.471 147.9 109.311 147.9 112.272Z" fill="#042A3C"/>
<path d="M147.9 137.556C147.9 139.764 147.243 141.923 146.012 143.759C144.781 145.595 143.032 147.027 140.985 147.872C138.939 148.717 136.687 148.938 134.514 148.507C132.341 148.076 130.345 147.013 128.779 145.451C127.212 143.89 126.146 141.9 125.714 139.734C125.281 137.568 125.503 135.323 126.351 133.283C127.199 131.243 128.634 129.499 130.476 128.272C132.318 127.045 134.484 126.39 136.699 126.39C139.67 126.39 142.519 127.566 144.619 129.66C146.72 131.754 147.9 134.594 147.9 137.556Z" fill="#042A3C"/>
<path d="M173 112.272C173 114.481 172.343 116.639 171.112 118.476C169.881 120.312 168.132 121.743 166.085 122.588C164.039 123.433 161.787 123.654 159.614 123.223C157.441 122.793 155.445 121.729 153.879 120.168C152.313 118.606 151.246 116.616 150.814 114.45C150.381 112.285 150.603 110.039 151.451 107.999C152.299 105.959 153.734 104.215 155.576 102.988C157.418 101.761 159.584 101.106 161.799 101.106C164.77 101.106 167.619 102.283 169.719 104.377C171.82 106.471 173 109.311 173 112.272Z" fill="#042A3C"/>
<path d="M122.801 36.4482C122.8 38.6566 122.142 40.8153 120.911 42.6511C119.679 44.4869 117.93 45.9174 115.882 46.7617C113.835 47.606 111.583 47.8263 109.411 47.3945C107.238 46.9628 105.243 45.8985 103.677 44.3362C102.111 42.774 101.045 40.7839 100.614 38.6177C100.182 36.4515 100.405 34.2065 101.254 32.1665C102.103 30.1265 103.539 28.3833 105.382 27.1572C107.224 25.9311 109.39 25.2773 111.606 25.2783C114.576 25.2801 117.424 26.4578 119.523 28.5525C121.623 30.6471 122.802 33.4872 122.801 36.4482Z" fill="#042A3C"/>
<path d="M147.909 36.4482C147.909 38.6566 147.252 40.8154 146.022 42.6516C144.791 44.4878 143.042 45.919 140.995 46.7641C138.948 47.6092 136.696 47.8303 134.523 47.3995C132.351 46.9686 130.355 45.9052 128.788 44.3436C127.222 42.782 126.155 40.7925 125.723 38.6265C125.291 36.4606 125.513 34.2155 126.36 32.1752C127.208 30.1349 128.644 28.391 130.486 27.1641C132.328 25.9372 134.493 25.2823 136.709 25.2823C139.679 25.2827 142.528 26.4592 144.628 28.5531C146.729 30.6471 147.909 33.4869 147.909 36.4482Z" fill="#042A3C"/>
<path d="M173 86.9993C173 89.2077 172.343 91.3665 171.112 93.2027C169.881 95.0389 168.132 96.4701 166.085 97.3152C164.039 98.1603 161.787 98.3814 159.614 97.9506C157.441 97.5198 155.445 96.4563 153.879 94.8948C152.313 93.3332 151.246 91.3436 150.814 89.1777C150.381 87.0117 150.603 84.7666 151.451 82.7263C152.299 80.6861 153.734 78.9422 155.576 77.7153C157.418 76.4884 159.584 75.8335 161.799 75.8335C164.77 75.8335 167.619 77.0099 169.719 79.1039C171.82 81.1979 173 84.038 173 86.9993Z" fill="#042A3C"/>
<path d="M147.9 86.9993C147.9 89.2077 147.243 91.3665 146.012 93.2027C144.781 95.0389 143.032 96.4701 140.985 97.3152C138.939 98.1603 136.687 98.3814 134.514 97.9506C132.341 97.5198 130.345 96.4563 128.779 94.8948C127.212 93.3332 126.146 91.3436 125.714 89.1777C125.281 87.0117 125.503 84.7666 126.351 82.7263C127.199 80.6861 128.634 78.9422 130.476 77.7153C132.318 76.4884 134.484 75.8335 136.699 75.8335C139.67 75.8335 142.519 77.0099 144.619 79.1039C146.72 81.1979 147.9 84.038 147.9 86.9993Z" fill="#042A3C"/>
<path d="M173 61.721C173 63.9294 172.343 66.0882 171.112 67.9244C169.881 69.7606 168.132 71.1918 166.085 72.0369C164.039 72.882 161.787 73.1031 159.614 72.6723C157.441 72.2415 155.445 71.178 153.879 69.6164C152.313 68.0549 151.246 66.0653 150.814 63.8994C150.381 61.7334 150.603 59.4883 151.451 57.448C152.299 55.4077 153.734 53.6639 155.576 52.437C157.418 51.21 159.584 50.5552 161.799 50.5552C164.77 50.5552 167.619 51.7316 169.719 53.8256C171.82 55.9196 173 58.7596 173 61.721Z" fill="#042A3C"/>
<path d="M72.6005 162.834C72.6005 165.042 71.9437 167.201 70.7132 169.037C69.4827 170.873 67.7337 172.304 65.6873 173.15C63.641 173.995 61.3892 174.216 59.2166 173.786C57.044 173.355 55.0482 172.293 53.4815 170.732C51.9149 169.17 50.8477 167.181 50.4149 165.016C49.9821 162.85 50.2031 160.605 51.05 158.565C51.897 156.525 53.3318 154.78 55.173 153.553C57.0142 152.325 59.1793 151.669 61.3943 151.668C62.8653 151.668 64.322 151.957 65.681 152.518C67.04 153.08 68.2748 153.902 69.3149 154.939C70.355 155.976 71.1801 157.207 71.7429 158.562C72.3057 159.917 72.5953 161.369 72.5951 162.836" fill="#042A3C"/>
<path d="M97.7008 162.834C97.7008 165.043 97.0439 167.201 95.8132 169.038C94.5824 170.874 92.8331 172.305 90.7864 173.15C88.7398 173.995 86.4877 174.216 84.3149 173.785C82.1422 173.355 80.1464 172.291 78.58 170.73C77.0135 169.168 75.9467 167.178 75.5145 165.013C75.0824 162.847 75.3042 160.601 76.1519 158.561C76.9997 156.521 78.4353 154.777 80.2773 153.55C82.1192 152.323 84.2848 151.668 86.5001 151.668C87.9711 151.668 89.4277 151.957 90.7867 152.518C92.1458 153.08 93.3806 153.902 94.4207 154.939C95.4608 155.976 96.2858 157.207 96.8486 158.562C97.4114 159.917 97.701 161.369 97.7008 162.836" fill="#042A3C"/>
<path d="M122.801 162.834C122.801 165.043 122.144 167.202 120.913 169.038C119.682 170.874 117.932 172.306 115.885 173.151C113.838 173.996 111.586 174.216 109.413 173.785C107.24 173.354 105.244 172.29 103.678 170.728C102.112 169.166 101.046 167.176 100.614 165.009C100.182 162.843 100.405 160.598 101.254 158.557C102.102 156.517 103.539 154.774 105.381 153.547C107.224 152.321 109.39 151.667 111.606 151.668C114.576 151.669 117.425 152.845 119.526 154.94C121.626 157.034 122.806 159.874 122.806 162.836" fill="#042A3C"/>
<path d="M47.5016 86.9993C47.5016 89.2077 46.8447 91.3665 45.6139 93.2027C44.3832 95.0389 42.6339 96.4701 40.5872 97.3152C38.5405 98.1603 36.2884 98.3814 34.1157 97.9506C31.943 97.5198 29.9472 96.4563 28.3807 94.8948C26.8143 93.3332 25.7475 91.3436 25.3153 89.1777C24.8831 87.0117 25.1049 84.7666 25.9527 82.7263C26.8005 80.6861 28.2361 78.9422 30.0781 77.7153C31.92 76.4884 34.0856 75.8335 36.3009 75.8335C39.2715 75.8335 42.1204 77.0099 44.221 79.1039C46.3215 81.1979 47.5016 84.038 47.5016 86.9993Z" fill="#042A3C"/>
<path d="M72.6005 36.4482C72.5997 38.6562 71.9422 40.8144 70.7112 42.6499C69.4802 44.4855 67.7309 45.916 65.6845 46.7607C63.6381 47.6053 61.3864 47.8262 59.2141 47.3953C57.0418 46.9645 55.0463 45.9013 53.4801 44.3401C51.9138 42.7789 50.847 40.7898 50.4146 38.6243C49.9821 36.4588 50.2034 34.2141 51.0504 32.174C51.8975 30.1338 53.3323 28.3898 55.1734 27.1624C57.0146 25.9351 59.1794 25.2794 61.3943 25.2783C62.866 25.2776 64.3234 25.566 65.6833 26.1271C67.0431 26.6882 68.2787 27.5109 69.3194 28.5482C70.3601 29.5856 71.1855 30.8172 71.7485 32.1727C72.3115 33.5283 72.601 34.9811 72.6005 36.4482Z" fill="#042A3C"/>
<path d="M47.5016 36.4482C47.5016 38.6566 46.8447 40.8154 45.6139 42.6516C44.3832 44.4878 42.6339 45.919 40.5872 46.7641C38.5405 47.6092 36.2884 47.8303 34.1157 47.3995C31.943 46.9686 29.9472 45.9052 28.3807 44.3436C26.8143 42.782 25.7475 40.7925 25.3153 38.6265C24.8831 36.4606 25.1049 34.2155 25.9527 32.1752C26.8005 30.1349 28.2361 28.391 30.0781 27.1641C31.92 25.9372 34.0856 25.2823 36.3009 25.2823C39.2714 25.2827 42.1201 26.4592 44.2206 28.5531C46.3211 30.6471 47.5013 33.4869 47.5016 36.4482Z" fill="#042A3C"/>
<path d="M22.4015 86.9993C22.4015 89.2077 21.7446 91.3665 20.5138 93.2027C19.2831 95.0389 17.5338 96.4701 15.4871 97.3152C13.4404 98.1603 11.1883 98.3814 9.0156 97.9506C6.84287 97.5198 4.84708 96.4563 3.28063 94.8948C1.71418 93.3332 0.647408 91.3436 0.215224 89.1777C-0.21696 87.0117 0.00485453 84.7666 0.852613 82.7263C1.70037 80.6861 3.136 78.9422 4.97795 77.7153C6.81991 76.4884 8.98546 75.8335 11.2008 75.8335C14.1714 75.8335 17.0203 77.0099 19.1209 79.1039C21.2214 81.1979 22.4015 84.038 22.4015 86.9993Z" fill="#042A3C"/>
<path d="M22.4015 61.721C22.4015 63.9294 21.7446 66.0882 20.5138 67.9244C19.2831 69.7606 17.5338 71.1918 15.4871 72.0369C13.4404 72.882 11.1883 73.1031 9.0156 72.6723C6.84287 72.2415 4.84708 71.178 3.28063 69.6164C1.71418 68.0549 0.647408 66.0653 0.215224 63.8994C-0.21696 61.7334 0.00485453 59.4883 0.852613 57.448C1.70037 55.4077 3.136 53.6639 4.97795 52.437C6.81991 51.21 8.98546 50.5552 11.2008 50.5552C14.1714 50.5552 17.0203 51.7316 19.1209 53.8256C21.2214 55.9196 22.4015 58.7596 22.4015 61.721Z" fill="#042A3C"/>
</svg>
