<svg width="540" height="543.75" viewBox="-40 -40 224 225" transform="rotate(45)" fill="none" xmlns="http://www.w3.org/2000/svg">
<path d="M21.6608 59.7635C21.6608 61.902 21.0256 63.9925 19.8354 65.7705C18.6453 67.5486 16.9538 68.9344 14.9748 69.7527C12.9957 70.571 10.818 70.785 8.71713 70.3677C6.61623 69.9504 4.68647 68.9205 3.17188 67.4083C1.6573 65.8961 0.625921 63.9694 0.208185 61.872C-0.20955 59.7746 0.00511518 57.6006 0.825039 55.625C1.64496 53.6494 3.03332 51.9609 4.81452 50.773C6.59573 49.5852 8.68978 48.9513 10.8319 48.9515C12.254 48.9515 13.6623 49.2312 14.9762 49.7746C16.2901 50.318 17.484 51.1144 18.4895 52.1184C19.4951 53.1224 20.2927 54.3143 20.8369 55.6261C21.381 56.9378 21.661 58.3438 21.6608 59.7635Z" fill="#FFFFFF" fill-opacity="0.05"/>
<path d="M118.728 59.7635C118.728 61.902 118.092 63.9925 116.902 65.7705C115.712 67.5486 114.021 68.9344 112.042 69.7527C110.063 70.571 107.885 70.785 105.784 70.3677C103.683 69.9504 101.753 68.9205 100.239 67.4083C98.7242 65.8961 97.6928 63.9694 97.2751 61.872C96.8573 59.7746 97.072 57.6006 97.8919 55.625C98.7119 53.6494 100.1 51.9609 101.881 50.773C103.663 49.5852 105.757 48.9513 107.899 48.9515C109.321 48.9515 110.729 49.2312 112.043 49.7746C113.357 50.318 114.551 51.1144 115.556 52.1184C116.562 53.1224 117.36 54.3143 117.904 55.6261C118.448 56.9378 118.728 58.3438 118.728 59.7635Z" fill="#FFFFFF" fill-opacity="0.05"/>
<path d="M45.9291 59.7635C45.9291 61.902 45.2939 63.9923 44.1039 65.7704C42.9138 67.5484 41.2224 68.9342 39.2434 69.7525C37.2644 70.5709 35.0868 70.785 32.9859 70.3678C30.8851 69.9506 28.9553 68.9209 27.4407 67.4088C25.926 65.8967 24.8945 63.9702 24.4767 61.8729C24.0588 59.7755 24.2732 57.6016 25.093 55.626C25.9127 53.6503 27.3008 51.9617 29.0819 50.7737C30.8629 49.5856 32.9568 48.9515 35.0988 48.9515C36.5211 48.9514 37.9295 49.2309 39.2436 49.7742C40.5577 50.3175 41.7516 51.1139 42.7574 52.1179C43.7631 53.1219 44.5608 54.3139 45.105 55.6258C45.6492 56.9376 45.9293 58.3436 45.9291 59.7635Z" fill="#FFFFFF" fill-opacity="0.05"/>
<path d="M70.1976 10.812C70.1976 12.9504 69.5625 15.0408 68.3724 16.8188C67.1824 18.5969 65.4909 19.9827 63.5119 20.801C61.533 21.6193 59.3554 21.8335 57.2545 21.4163C55.1536 20.9991 53.2239 19.9693 51.7092 18.4573C50.1946 16.9452 49.1631 15.0187 48.7452 12.9213C48.3273 10.824 48.5418 8.65007 49.3615 6.67443C50.1812 4.6988 51.5694 3.01019 53.3504 1.82215C55.1314 0.634114 57.2254 0 59.3674 0C62.2396 0.000357689 64.9941 1.13959 67.0251 3.16716C69.0561 5.19473 70.1973 7.94459 70.1976 10.812Z" fill="#FFFFFF" fill-opacity="0.05"/>
<path d="M70.1976 35.2877C70.1971 37.426 69.5615 39.5161 68.3711 41.2938C67.1807 43.0715 65.4891 44.4569 63.5101 45.2748C61.531 46.0927 59.3535 46.3064 57.2528 45.889C55.1522 45.4715 53.2226 44.4415 51.7083 42.9293C50.1939 41.4171 49.1627 39.4906 48.745 37.3934C48.3273 35.2961 48.542 33.1223 49.3618 31.1468C50.1816 29.1714 51.5697 27.4829 53.3507 26.295C55.1316 25.1071 57.2255 24.473 59.3674 24.473C62.2397 24.473 64.9945 25.6121 67.0255 27.6398C69.0566 29.6674 70.1976 32.4175 70.1976 35.285" fill="#FFFFFF" fill-opacity="0.05"/>
<path d="M70.1976 84.2325C70.1979 86.371 69.5629 88.4615 68.3731 90.2397C67.1832 92.0179 65.4918 93.4039 63.5129 94.2225C61.5339 95.041 59.3563 95.2553 57.2553 94.8383C55.1544 94.4213 53.2245 93.3916 51.7097 91.8796C50.1949 90.3676 49.1633 88.4411 48.7453 86.3437C48.3273 84.2463 48.5417 82.0723 49.3614 80.0966C50.1811 78.1209 51.5692 76.4322 53.3503 75.2441C55.1313 74.056 57.2253 73.4219 59.3674 73.4219C62.2395 73.4219 64.994 74.5608 67.0251 76.5882C69.0561 78.6155 70.1973 81.3652 70.1976 84.2325Z" fill="#FFFFFF" fill-opacity="0.05"/>
<path d="M70.1976 59.7635C70.1976 61.902 69.5625 63.9923 68.3724 65.7704C67.1824 67.5484 65.4909 68.9342 63.5119 69.7525C61.533 70.5709 59.3554 70.785 57.2545 70.3678C55.1536 69.9506 53.2239 68.9209 51.7092 67.4088C50.1946 65.8967 49.1631 63.9702 48.7452 61.8729C48.3273 59.7755 48.5418 57.6016 49.3615 55.626C50.1812 53.6503 51.5694 51.9617 53.3504 50.7737C55.1314 49.5856 57.2254 48.9515 59.3674 48.9515C62.2397 48.9515 64.9945 50.0907 67.0255 52.1183C69.0566 54.1459 70.1976 56.896 70.1976 59.7635Z" fill="#FFFFFF" fill-opacity="0.05"/>
<path d="M70.1976 108.714C70.1979 110.852 69.5629 112.943 68.3731 114.721C67.1832 116.499 65.4918 117.885 63.5129 118.704C61.5339 119.522 59.3563 119.736 57.2553 119.319C55.1544 118.902 53.2245 117.873 51.7097 116.361C50.1949 114.849 49.1633 112.922 48.7453 110.825C48.3273 108.727 48.5417 106.553 49.3614 104.578C50.1811 102.602 51.5692 100.913 53.3503 99.7252C55.1313 98.5371 57.2253 97.903 59.3674 97.903C62.2395 97.903 64.994 99.0419 67.0251 101.069C69.0561 103.097 70.1973 105.846 70.1976 108.714Z" fill="#FFFFFF" fill-opacity="0.05"/>
<path d="M94.4647 10.812C94.4647 12.9505 93.8295 15.0409 92.6394 16.819C91.4493 18.597 89.7578 19.9828 87.7787 20.8011C85.7997 21.6194 83.622 21.8335 81.5211 21.4162C79.4202 20.9989 77.4904 19.969 75.9758 18.4568C74.4612 16.9446 73.4299 15.0179 73.0121 12.9205C72.5944 10.8231 72.8091 8.64911 73.629 6.67349C74.4489 4.69788 75.8373 3.00937 77.6185 1.8215C79.3997 0.633622 81.4937 -0.000266724 83.6358 8.41916e-08C86.508 0.000357824 89.2623 1.13964 91.2931 3.16724C93.3239 5.19485 94.4647 7.94472 94.4647 10.812Z" fill="#FFFFFF" fill-opacity="0.05"/>
<path d="M94.4647 35.2877C94.4642 37.4261 93.8285 39.5163 92.6381 41.294C91.4477 43.0717 89.7559 44.457 87.7768 45.2749C85.7977 46.0928 83.6202 46.3065 81.5194 45.8889C79.4187 45.4713 77.4892 44.4412 75.9749 42.9288C74.4606 41.4165 73.4295 39.4899 73.0119 37.3925C72.5944 35.2952 72.8093 33.1214 73.6293 31.1459C74.4493 29.1704 75.8376 27.4821 77.6188 26.2943C79.3999 25.1066 81.4939 24.4728 83.6358 24.473C85.058 24.473 86.4663 24.7527 87.7802 25.2961C89.0941 25.8394 90.2879 26.6359 91.2935 27.6399C92.2991 28.6439 93.0967 29.8358 93.6408 31.1476C94.1849 32.4593 94.4649 33.8652 94.4647 35.285" fill="#FFFFFF" fill-opacity="0.05"/>
<path d="M94.4647 84.2325C94.465 86.3711 93.83 88.4616 92.6401 90.2399C91.4501 92.0181 89.7587 93.4041 87.7796 94.2226C85.8006 95.0411 83.6229 95.2554 81.5219 94.8382C79.4209 94.4211 77.491 93.3913 75.9763 91.8791C74.4616 90.367 73.4301 88.4403 73.0122 86.3429C72.5944 84.2454 72.809 82.0714 73.6289 80.0957C74.4488 78.12 75.8371 76.4314 77.6183 75.2435C79.3996 74.0555 81.4937 73.4216 83.6358 73.4219C86.5078 73.4219 89.2622 74.5609 91.293 76.5883C93.3238 78.6156 94.4647 81.3654 94.4647 84.2325Z" fill="#FFFFFF" fill-opacity="0.05"/>
<path d="M94.4647 59.7635C94.4647 61.902 93.8295 63.9925 92.6394 65.7705C91.4493 67.5486 89.7578 68.9344 87.7787 69.7527C85.7997 70.571 83.622 70.785 81.5211 70.3677C79.4202 69.9504 77.4904 68.9205 75.9758 67.4083C74.4612 65.8961 73.4299 63.9694 73.0121 61.872C72.5944 59.7746 72.8091 57.6006 73.629 55.625C74.4489 53.6494 75.8373 51.9609 77.6185 50.773C79.3997 49.5852 81.4937 48.9513 83.6358 48.9515C85.058 48.9515 86.4663 49.2312 87.7802 49.7746C89.0941 50.318 90.2879 51.1144 91.2935 52.1184C92.2991 53.1224 93.0967 54.3143 93.6408 55.6261C94.1849 56.9378 94.4649 58.3438 94.4647 59.7635Z" fill="#FFFFFF" fill-opacity="0.05"/>
<path d="M94.4647 108.714C94.465 110.852 93.83 112.943 92.6401 114.721C91.4501 116.499 89.7587 117.885 87.7796 118.704C85.8006 119.522 83.6229 119.736 81.5219 119.319C79.4209 118.902 77.491 117.872 75.9763 116.36C74.4616 114.848 73.4301 112.921 73.0122 110.824C72.5944 108.727 72.809 106.552 73.6289 104.577C74.4488 102.601 75.8371 100.912 77.6183 99.7245C79.3996 98.5366 81.4937 97.9027 83.6358 97.903C86.5078 97.903 89.2622 99.0419 91.293 101.069C93.3238 103.097 94.4647 105.846 94.4647 108.714Z" fill="#FFFFFF" fill-opacity="0.05"/>
<path d="M70.1976 133.189C70.1976 135.328 69.5625 137.418 68.3724 139.196C67.1824 140.974 65.4909 142.36 63.5119 143.178C61.533 143.997 59.3554 144.211 57.2545 143.794C55.1536 143.376 53.2239 142.347 51.7092 140.835C50.1946 139.322 49.1631 137.396 48.7452 135.299C48.3273 133.201 48.5418 131.027 49.3615 129.052C50.1812 127.076 51.5694 125.388 53.3504 124.199C55.1314 123.011 57.2254 122.377 59.3674 122.377C62.2396 122.378 64.9941 123.517 67.0251 125.544C69.0561 127.572 70.1973 130.322 70.1976 133.189Z" fill="#FFFFFF" fill-opacity="0.05"/>
<path d="M94.4647 133.189C94.4647 135.328 93.8295 137.418 92.6394 139.196C91.4493 140.974 89.7578 142.36 87.7787 143.178C85.7997 143.997 83.622 144.211 81.5211 143.793C79.4202 143.376 77.4904 142.346 75.9758 140.834C74.4612 139.322 73.4299 137.395 73.0121 135.298C72.5944 133.2 72.8091 131.026 73.629 129.051C74.4489 127.075 75.8373 125.387 77.6185 124.199C79.3997 123.011 81.4937 122.377 83.6358 122.377C86.508 122.378 89.2623 123.517 91.2931 125.545C93.3239 127.572 94.4647 130.322 94.4647 133.189Z" fill="#FFFFFF" fill-opacity="0.05"/>
<path d="M21.6608 84.2325C21.661 86.3711 21.0261 88.4616 19.8361 90.2399C18.6462 92.0181 16.9547 93.4041 14.9757 94.2226C12.9967 95.0411 10.819 95.2554 8.71796 94.8382C6.61697 94.4211 4.68708 93.3913 3.17236 91.8791C1.65764 90.367 0.626129 88.4403 0.208284 86.3429C-0.209561 84.2454 0.00502665 82.0714 0.824911 80.0957C1.6448 78.12 3.03315 76.4314 4.81438 75.2435C6.59562 74.0555 8.68972 73.4216 10.8319 73.4219C13.7039 73.4219 16.4582 74.5609 18.4891 76.5883C20.5199 78.6156 21.6608 81.3654 21.6608 84.2325Z" fill="#FFFFFF" fill-opacity="0.05"/>
<path d="M118.728 84.2325C118.728 86.3711 118.093 88.4616 116.903 90.2399C115.713 92.0181 114.022 93.4041 112.043 94.2226C110.064 95.0411 107.886 95.2554 105.785 94.8382C103.684 94.4211 101.754 93.3913 100.239 91.8791C98.7245 90.367 97.693 88.4403 97.2752 86.3429C96.8573 84.2454 97.0719 82.0714 97.8918 80.0957C98.7117 78.12 100.1 76.4314 101.881 75.2435C103.663 74.0555 105.757 73.4216 107.899 73.4219C110.771 73.4219 113.525 74.5609 115.556 76.5883C117.587 78.6156 118.728 81.3654 118.728 84.2325Z" fill="#FFFFFF" fill-opacity="0.05"/>
<path d="M143.002 59.7635C143.002 61.902 142.366 63.9923 141.176 65.7704C139.986 67.5484 138.295 68.9342 136.316 69.7525C134.337 70.5709 132.159 70.785 130.058 70.3678C127.958 69.9506 126.028 68.9209 124.513 67.4088C122.999 65.8967 121.967 63.9702 121.549 61.8729C121.131 59.7755 121.346 57.6016 122.165 55.626C122.985 53.6503 124.373 51.9617 126.154 50.7737C127.935 49.5856 130.029 48.9515 132.171 48.9515C133.594 48.9514 135.002 49.2309 136.316 49.7742C137.63 50.3175 138.824 51.1139 139.83 52.1179C140.836 53.1219 141.633 54.3139 142.178 55.6258C142.722 56.9376 143.002 58.3436 143.002 59.7635Z" fill="#FFFFFF" fill-opacity="0.05"/>
<path d="M143.002 84.2325C143.002 86.371 142.367 88.4615 141.177 90.2397C139.987 92.0179 138.296 93.4039 136.317 94.2225C134.338 95.041 132.16 95.2553 130.059 94.8383C127.958 94.4213 126.028 93.3916 124.514 91.8796C122.999 90.3676 121.967 88.4411 121.549 86.3437C121.131 84.2463 121.346 82.0723 122.165 80.0966C122.985 78.1209 124.373 76.4322 126.154 75.2441C127.935 74.056 130.029 73.4219 132.171 73.4219C133.594 73.4217 135.002 73.7012 136.316 74.2444C137.63 74.7876 138.824 75.5839 139.829 76.5878C140.835 77.5917 141.633 78.7835 142.177 80.0952C142.721 81.4069 143.002 82.8127 143.002 84.2325Z" fill="#FFFFFF" fill-opacity="0.05"/>
<path d="M45.9291 84.2325C45.9294 86.371 45.2944 88.4615 44.1045 90.2397C42.9146 92.0179 41.2233 93.4039 39.2443 94.2225C37.2654 95.041 35.0877 95.2553 32.9868 94.8383C30.8858 94.4213 28.9559 93.3916 27.4412 91.8796C25.9264 90.3676 24.8948 88.4411 24.4768 86.3437C24.0588 84.2463 24.2732 82.0723 25.0928 80.0966C25.9125 78.1209 27.3007 76.4322 29.0817 75.2441C30.8628 74.056 32.9567 73.4219 35.0988 73.4219C36.521 73.4217 37.9293 73.7012 39.2433 74.2444C40.5573 74.7876 41.7512 75.5839 42.7569 76.5878C43.7626 77.5917 44.5604 78.7835 45.1047 80.0952C45.6489 81.4069 45.9291 82.8127 45.9291 84.2325Z" fill="#FFFFFF" fill-opacity="0.05"/>
</svg>
