<svg width="76" height="66" viewBox="0 0 76 66" fill="none" xmlns="http://www.w3.org/2000/svg">
<path d="M40.6617 5.61563C44.6451 1.91971 49.9137 -0.0923804 55.3575 0.00325979C60.8014 0.0988999 65.9954 2.2948 69.8454 6.12834C73.6954 9.96188 75.9007 15.1337 75.9967 20.5543C76.0928 25.9749 74.0721 31.2211 70.3603 35.1874L40.4866 64.9685C40.161 65.2953 39.7736 65.5548 39.3469 65.7318C38.9201 65.9089 38.4623 66 38 66C37.5377 66 37.0799 65.9089 36.6531 65.7318C36.2264 65.5548 35.839 65.2953 35.5134 64.9685L5.63971 35.1874C1.92794 31.2211 -0.0927765 25.9749 0.00327377 20.5543C0.0993241 15.1337 2.30464 9.96188 6.15462 6.12834C10.0046 2.2948 15.1986 0.0988999 20.6425 0.00325979C26.0863 -0.0923804 31.3549 1.91971 35.3383 5.61563L38 8.23106L40.6617 5.61563ZM65.4222 30.2704C68.0508 27.653 69.5276 24.1031 69.5276 20.4015C69.5276 16.7 68.0508 13.15 65.4222 10.5326C64.1206 9.23664 62.5755 8.20859 60.8749 7.5072C59.1743 6.80581 57.3517 6.44481 55.511 6.44481C51.7936 6.44481 48.2284 7.91524 45.5998 10.5326L40.4866 15.6589C40.161 15.9857 39.7736 16.2452 39.3469 16.4222C38.9201 16.5993 38.4623 16.6904 38 16.6904C37.5377 16.6904 37.0799 16.5993 36.6531 16.4222C36.2264 16.2452 35.839 15.9857 35.5134 15.6589L30.4002 10.5326C27.7716 7.91524 24.2064 6.44481 20.489 6.44481C16.7716 6.44481 13.2064 7.91524 10.5778 10.5326C7.94919 13.15 6.47245 16.7 6.47245 20.4015C6.47245 24.1031 7.94919 27.653 10.5778 30.2704L38 57.5755L65.4222 30.2704Z" fill="#77B9F2"/>
</svg>
