<svg width="52" height="107" viewBox="0 0 52 107" fill="none" xmlns="http://www.w3.org/2000/svg">
<g clip-path="url(#clip0_512_2598)">
<path d="M9.4864 4.80993C9.4864 7.46703 7.36486 9.61986 4.74639 9.61986C2.12154 9.62633 0 7.47349 0 4.80993C0 2.15283 2.12154 0 4.74001 0C7.36486 0 9.4864 2.15283 9.4864 4.80993Z" fill="#E57428"/>
<path d="M20.1131 4.80993C20.1131 7.46703 17.9915 9.61986 15.3731 9.61986C12.7546 9.61986 10.6331 7.46703 10.6331 4.80993C10.6331 2.15283 12.7546 0 15.3731 0C17.9915 0 20.1131 2.15283 20.1131 4.80993Z" fill="#E57428"/>
<path d="M30.7464 4.80993C30.7464 7.46703 28.6249 9.61986 26.0064 9.61986C23.3879 9.61986 21.2664 7.46703 21.2664 4.80993C21.26 2.15283 23.3815 0 26 0C28.6185 0 30.7464 2.15283 30.7464 4.80993Z" fill="#E57428"/>
<path d="M41.3731 4.80993C41.3731 7.46703 39.2516 9.61986 36.6331 9.61986C34.0146 9.61986 31.8931 7.46703 31.8931 4.80993C31.8931 2.15283 34.0146 0 36.6331 0C39.2516 0 41.3731 2.15283 41.3731 4.80993Z" fill="#E57428"/>
<path d="M52 4.80993C52 7.46703 49.8785 9.61986 47.26 9.61986C44.6416 9.61986 42.52 7.46703 42.52 4.80993C42.52 2.15283 44.6416 0 47.26 0C49.8785 0 52 2.15283 52 4.80993Z" fill="#E57428"/>
<path d="M9.4864 15.7098C9.4864 18.3669 7.36486 20.5198 4.74639 20.5198C2.12154 20.5198 0 18.3669 0 15.7098C0 13.0527 2.12154 10.8999 4.74001 10.8999C7.36486 10.8935 9.4864 13.0527 9.4864 15.7098Z" fill="#E57428"/>
<path d="M9.4864 26.6034C9.4864 29.2605 7.36486 31.4133 4.74639 31.4133C2.12154 31.4198 0 29.2605 0 26.6034C0 23.9463 2.12154 21.7935 4.74001 21.7935C7.36486 21.7935 9.4864 23.9463 9.4864 26.6034Z" fill="#E57428"/>
<path d="M20.1131 26.6034C20.1131 29.2605 17.9915 31.4133 15.3731 31.4133C12.7546 31.4133 10.6331 29.2605 10.6331 26.6034C10.6331 23.9463 12.7546 21.7935 15.3731 21.7935C17.9915 21.7935 20.1131 23.9463 20.1131 26.6034Z" fill="#E57428"/>
<path d="M30.7464 26.6034C30.7464 29.2605 28.6248 31.4133 26.0064 31.4133C23.3879 31.4133 21.2664 29.2605 21.2664 26.6034C21.2664 23.9463 23.3879 21.7935 26.0064 21.7935C28.6185 21.7935 30.7464 23.9463 30.7464 26.6034Z" fill="#E57428"/>
<path d="M41.3731 26.6034C41.3731 29.2605 39.2516 31.4133 36.6331 31.4133C34.0146 31.4133 31.8931 29.2605 31.8931 26.6034C31.8931 23.9463 34.0146 21.7935 36.6331 21.7935C39.2516 21.7935 41.3731 23.9463 41.3731 26.6034Z" fill="#E57428"/>
<path d="M52 37.5033C52 40.1604 49.8785 42.3132 47.26 42.3132C44.6416 42.3132 42.52 40.1604 42.52 37.5033C42.52 34.8462 44.6416 32.6934 47.26 32.6934C49.8785 32.6869 52 34.8462 52 37.5033Z" fill="#E57428"/>
<path d="M52 48.3966C52 51.0537 49.8785 53.2065 47.26 53.2065C44.6416 53.2065 42.52 51.0537 42.52 48.3966C42.52 45.7395 44.6416 43.5867 47.26 43.5867C49.8785 43.5867 52 45.7395 52 48.3966Z" fill="#E57428"/>
<path d="M9.4864 59.2902C9.4864 61.9473 7.36486 64.1001 4.74639 64.1001C2.12154 64.1065 0 61.9537 0 59.2902C0 56.6331 2.12154 54.4802 4.74001 54.4802C7.36486 54.4802 9.4864 56.6331 9.4864 59.2902Z" fill="#E57428"/>
<path d="M52 59.2902C52 61.9473 49.8785 64.1001 47.26 64.1001C44.6416 64.1001 42.52 61.9473 42.52 59.2902C42.52 56.6331 44.6416 54.4802 47.26 54.4802C49.8785 54.4802 52 56.6331 52 59.2902Z" fill="#E57428"/>
<path d="M20.1131 70.1901C20.1131 72.8472 17.9915 75 15.3731 75C12.7546 75 10.6331 72.8472 10.6331 70.1901C10.6331 67.533 12.7546 65.3801 15.3731 65.3801C17.9915 65.3737 20.1131 67.533 20.1131 70.1901Z" fill="#E57428"/>
<path d="M30.7464 70.1901C30.7464 72.8472 28.6248 75 26.0064 75C23.3879 75 21.2664 72.8472 21.2664 70.1901C21.2664 67.533 23.3879 65.3801 26.0064 65.3801C28.6185 65.3737 30.7464 67.533 30.7464 70.1901Z" fill="#E57428"/>
<path d="M41.3731 70.1901C41.3731 72.8472 39.2516 75 36.6331 75C34.0146 75 31.8931 72.8472 31.8931 70.1901C31.8931 67.533 34.0146 65.3801 36.6331 65.3801C39.2516 65.3737 41.3731 67.533 41.3731 70.1901Z" fill="#E57428"/>
</g>
<g clip-path="url(#clip1_512_2598)">
<path d="M8.72793 82.4717V92.5217H7.31114V83.718H1.43015V92.5217H0V82.4717H8.72793Z" fill="white"/>
<path d="M21.3987 82.4717V92.5217H19.982V89.5916H17.1885C17.0147 89.5916 16.8877 89.5849 16.8009 89.5783L14.7693 92.5217H13.2322L15.4776 89.333C14.7559 89.0944 14.2012 88.6966 13.8136 88.1331C13.426 87.5696 13.2322 86.8934 13.2322 86.0847C13.2322 84.9444 13.5997 84.0561 14.3415 83.4197C15.0767 82.7833 16.0791 82.4651 17.3288 82.4651H21.3987V82.4717ZM15.3507 87.7884C15.7917 88.1861 16.44 88.385 17.2954 88.385H19.9753V83.718H17.3823C16.5135 83.718 15.8452 83.9169 15.3841 84.3213C14.923 84.7257 14.6891 85.309 14.6891 86.0714C14.6957 86.8205 14.9163 87.3906 15.3507 87.7884Z" fill="white"/>
<path d="M30.8686 83.718H27.3934V92.5217H25.97V83.718H22.5149V82.4717H30.8686V83.718Z" fill="white"/>
<path d="M31.9778 82.4717H33.4146V90.2213L39.4092 82.4717H40.7391V92.5217H39.3223V84.7787L33.3144 92.5217H31.9778V82.4717Z" fill="white"/>
<path d="M43.2454 82.4717H44.6755V90.2213L50.6701 82.4717H52V92.5217H50.5832V84.7787L44.5753 92.5217H43.2454V82.4717Z" fill="white"/>
<path d="M8.72793 96.8308V106.881H7.31114V98.0771H1.43015V106.881H0V96.8308H8.72793Z" fill="white"/>
<path d="M18.8594 105.634V106.881H11.5015V96.8308H18.6522V98.0771H12.9517V101.166H18.0307V102.386H12.9517V105.634H18.8594Z" fill="white"/>
<path d="M28.2955 97.7655C29.0506 98.3887 29.4249 99.2439 29.4249 100.338C29.4249 101.432 29.0506 102.287 28.2955 102.91C27.5403 103.533 26.5111 103.845 25.1946 103.845H22.6885V106.887H21.2383V96.8308H25.1879C26.5111 96.8308 27.5403 97.1424 28.2955 97.7655ZM27.2529 102.008C27.7341 101.624 27.9747 101.06 27.9747 100.338C27.9747 99.6085 27.7341 99.0516 27.2529 98.6671C26.7718 98.2826 26.0701 98.0837 25.1545 98.0837H22.6952V102.592H25.1545C26.0701 102.592 26.7718 102.393 27.2529 102.008Z" fill="white"/>
<path d="M33.4014 106.33C32.5794 105.886 31.9378 105.27 31.47 104.487C31.0022 103.705 30.7683 102.824 30.7683 101.862C30.7683 100.894 31.0022 100.019 31.47 99.2371C31.9378 98.4548 32.5794 97.8383 33.4014 97.3942C34.2234 96.95 35.1456 96.7246 36.1681 96.7246C37.1839 96.7246 38.0995 96.95 38.9215 97.3942C39.7435 97.8383 40.3851 98.4548 40.8462 99.2305C41.3073 100.013 41.5412 100.888 41.5412 101.869C41.5412 102.843 41.3073 103.725 40.8462 104.507C40.3851 105.29 39.7435 105.9 38.9215 106.344C38.0995 106.788 37.1839 107.013 36.1681 107.013C35.139 107 34.2167 106.775 33.4014 106.33ZM38.1663 105.217C38.7611 104.879 39.2289 104.421 39.5697 103.831C39.9106 103.241 40.0843 102.585 40.0843 101.856C40.0843 101.126 39.9106 100.47 39.5697 99.8801C39.2289 99.2901 38.7611 98.8327 38.1663 98.4946C37.5715 98.1565 36.9033 97.9908 36.1614 97.9908C35.4196 97.9908 34.7447 98.1565 34.1432 98.4946C33.5417 98.8327 33.0672 99.2901 32.7264 99.8801C32.3856 100.47 32.2118 101.126 32.2118 101.856C32.2118 102.585 32.3856 103.241 32.7264 103.831C33.0672 104.421 33.5417 104.885 34.1432 105.217C34.7447 105.555 35.4196 105.721 36.1614 105.721C36.9099 105.721 37.5782 105.555 38.1663 105.217Z" fill="white"/>
<path d="M51.9799 96.8308V106.881H50.5297V102.399H44.7156V106.881H43.2654V96.8308H44.7156V101.153H50.5297V96.8308H51.9799Z" fill="white"/>
<path d="M11.6819 82.4717H10.1982V86.5023H11.6819V82.4717Z" fill="white"/>
<path d="M49.6543 81H45.5911V82.4717H49.6543V81Z" fill="white"/>
</g>
<defs>
<clipPath id="clip0_512_2598">
<rect width="52" height="75" fill="white"/>
</clipPath>
<clipPath id="clip1_512_2598">
<rect width="52" height="26" fill="white" transform="translate(0 81)"/>
</clipPath>
</defs>
</svg>
