<svg width="87" height="43" viewBox="0 0 87 43" fill="none" xmlns="http://www.w3.org/2000/svg">
<g clip-path="url(#clip0_512_2510)">
<path d="M5.47292 2.75769C5.47292 4.2811 4.24896 5.51539 2.7383 5.51539C1.22396 5.51909 0 4.2848 0 2.75769C0 1.23429 1.22396 0 2.73462 0C4.24896 0 5.47292 1.23429 5.47292 2.75769Z" fill="#E57428"/>
<path d="M11.6038 2.75769C11.6038 4.2811 10.3798 5.51539 8.86915 5.51539C7.35849 5.51539 6.13452 4.2811 6.13452 2.75769C6.13452 1.23429 7.35849 0 8.86915 0C10.3798 0 11.6038 1.23429 11.6038 2.75769Z" fill="#E57428"/>
<path d="M17.7383 2.75769C17.7383 4.2811 16.5143 5.51539 15.0037 5.51539C13.493 5.51539 12.2691 4.2811 12.2691 2.75769C12.2654 1.23429 13.4893 0 15 0C16.5107 0 17.7383 1.23429 17.7383 2.75769Z" fill="#E57428"/>
<path d="M23.8692 2.75769C23.8692 4.2811 22.6452 5.51539 21.1345 5.51539C19.6239 5.51539 18.3999 4.2811 18.3999 2.75769C18.3999 1.23429 19.6239 0 21.1345 0C22.6452 0 23.8692 1.23429 23.8692 2.75769Z" fill="#E57428"/>
<path d="M30 2.75769C30 4.2811 28.776 5.51539 27.2654 5.51539C25.7547 5.51539 24.5308 4.2811 24.5308 2.75769C24.5308 1.23429 25.7547 0 27.2654 0C28.776 0 30 1.23429 30 2.75769Z" fill="#E57428"/>
<path d="M5.47292 9.00697C5.47292 10.5304 4.24896 11.7647 2.7383 11.7647C1.22396 11.7647 0 10.5304 0 9.00697C0 7.48357 1.22396 6.24928 2.73462 6.24928C4.24896 6.24557 5.47292 7.48357 5.47292 9.00697Z" fill="#E57428"/>
<path d="M5.47292 15.2526C5.47292 16.776 4.24896 18.0103 2.7383 18.0103C1.22396 18.014 0 16.776 0 15.2526C0 13.7292 1.22396 12.4949 2.73462 12.4949C4.24896 12.4949 5.47292 13.7292 5.47292 15.2526Z" fill="#E57428"/>
<path d="M11.6038 15.2526C11.6038 16.776 10.3798 18.0103 8.86915 18.0103C7.35849 18.0103 6.13452 16.776 6.13452 15.2526C6.13452 13.7292 7.35849 12.4949 8.86915 12.4949C10.3798 12.4949 11.6038 13.7292 11.6038 15.2526Z" fill="#E57428"/>
<path d="M17.7383 15.2526C17.7383 16.776 16.5143 18.0103 15.0037 18.0103C13.493 18.0103 12.269 16.776 12.269 15.2526C12.269 13.7292 13.493 12.4949 15.0037 12.4949C16.5107 12.4949 17.7383 13.7292 17.7383 15.2526Z" fill="#E57428"/>
<path d="M23.8692 15.2526C23.8692 16.776 22.6452 18.0103 21.1345 18.0103C19.6239 18.0103 18.3999 16.776 18.3999 15.2526C18.3999 13.7292 19.6239 12.4949 21.1345 12.4949C22.6452 12.4949 23.8692 13.7292 23.8692 15.2526Z" fill="#E57428"/>
<path d="M30 21.5018C30 23.0252 28.776 24.2595 27.2654 24.2595C25.7547 24.2595 24.5308 23.0252 24.5308 21.5018C24.5308 19.9784 25.7547 18.7441 27.2654 18.7441C28.776 18.7404 30 19.9784 30 21.5018Z" fill="#E57428"/>
<path d="M30 27.7474C30 29.2708 28.776 30.5051 27.2654 30.5051C25.7547 30.5051 24.5308 29.2708 24.5308 27.7474C24.5308 26.224 25.7547 24.9897 27.2654 24.9897C28.776 24.9897 30 26.224 30 27.7474Z" fill="#E57428"/>
<path d="M5.47292 33.993C5.47292 35.5164 4.24896 36.7507 2.7383 36.7507C1.22396 36.7544 0 35.5202 0 33.993C0 32.4696 1.22396 31.2354 2.73462 31.2354C4.24896 31.2354 5.47292 32.4696 5.47292 33.993Z" fill="#E57428"/>
<path d="M30 33.993C30 35.5164 28.776 36.7507 27.2654 36.7507C25.7547 36.7507 24.5308 35.5164 24.5308 33.993C24.5308 32.4696 25.7547 31.2354 27.2654 31.2354C28.776 31.2354 30 32.4696 30 33.993Z" fill="#E57428"/>
<path d="M11.6038 40.2423C11.6038 41.7657 10.3798 43 8.86915 43C7.35849 43 6.13452 41.7657 6.13452 40.2423C6.13452 38.7189 7.35849 37.4846 8.86915 37.4846C10.3798 37.4809 11.6038 38.7189 11.6038 40.2423Z" fill="#E57428"/>
<path d="M17.7383 40.2423C17.7383 41.7657 16.5143 43 15.0037 43C13.493 43 12.269 41.7657 12.269 40.2423C12.269 38.7189 13.493 37.4846 15.0037 37.4846C16.5107 37.4809 17.7383 38.7189 17.7383 40.2423Z" fill="#E57428"/>
<path d="M23.8692 40.2423C23.8692 41.7657 22.6452 43 21.1345 43C19.6239 43 18.3999 41.7657 18.3999 40.2423C18.3999 38.7189 19.6239 37.4846 21.1345 37.4846C22.6452 37.4809 23.8692 38.7189 23.8692 40.2423Z" fill="#E57428"/>
</g>
<g clip-path="url(#clip1_512_2510)">
<path d="M43.7279 10.4717V20.5217H42.3111V11.718H36.4302V20.5217H35V10.4717H43.7279Z" fill="white"/>
<path d="M56.3987 10.4717V20.5217H54.982V17.5916H52.1885C52.0147 17.5916 51.8877 17.5849 51.8009 17.5783L49.7693 20.5217H48.2322L50.4776 17.333C49.7559 17.0944 49.2012 16.6966 48.8136 16.1331C48.426 15.5696 48.2322 14.8934 48.2322 14.0847C48.2322 12.9444 48.5997 12.0561 49.3415 11.4197C50.0767 10.7833 51.0791 10.4651 52.3288 10.4651H56.3987V10.4717ZM50.3507 15.7884C50.7917 16.1861 51.44 16.385 52.2954 16.385H54.9753V11.718H52.3823C51.5135 11.718 50.8452 11.9169 50.3841 12.3213C49.923 12.7257 49.6891 13.309 49.6891 14.0714C49.6957 14.8205 49.9163 15.3906 50.3507 15.7884Z" fill="white"/>
<path d="M65.8686 11.718H62.3934V20.5217H60.97V11.718H57.5149V10.4717H65.8686V11.718Z" fill="white"/>
<path d="M66.978 10.4717H68.4149V18.2213L74.4095 10.4717H75.7394V20.5217H74.3226V12.7787L68.3146 20.5217H66.978V10.4717Z" fill="white"/>
<path d="M78.2451 10.4717H79.6753V18.2213L85.6699 10.4717H86.9998V20.5217H85.583V12.7787L79.575 20.5217H78.2451V10.4717Z" fill="white"/>
<path d="M43.7279 24.8308V34.8808H42.3111V26.0771H36.4302V34.8808H35V24.8308H43.7279Z" fill="white"/>
<path d="M53.8594 33.6345V34.8808H46.5015V24.8308H53.6522V26.0771H47.9517V29.1664H53.0307V30.3861H47.9517V33.6345H53.8594Z" fill="white"/>
<path d="M63.2955 25.7655C64.0506 26.3887 64.4249 27.2439 64.4249 28.3377C64.4249 29.4315 64.0506 30.2867 63.2955 30.9099C62.5403 31.533 61.5111 31.8446 60.1946 31.8446H57.6885V34.8874H56.2383V24.8308H60.1879C61.5111 24.8308 62.5403 25.1424 63.2955 25.7655ZM62.2529 30.0083C62.7341 29.6238 62.9747 29.0603 62.9747 28.3377C62.9747 27.6085 62.7341 27.0516 62.2529 26.6671C61.7718 26.2826 61.0701 26.0837 60.1545 26.0837H57.6952V30.5916H60.1545C61.0701 30.5916 61.7718 30.3928 62.2529 30.0083Z" fill="white"/>
<path d="M68.4011 34.3304C67.5791 33.8863 66.9376 33.2697 66.4698 32.4875C66.002 31.7052 65.7681 30.8235 65.7681 29.8623C65.7681 28.8944 66.002 28.0194 66.4698 27.2371C66.9376 26.4548 67.5791 25.8383 68.4011 25.3942C69.2231 24.95 70.1454 24.7246 71.1679 24.7246C72.1837 24.7246 73.0993 24.95 73.9213 25.3942C74.7433 25.8383 75.3848 26.4548 75.846 27.2305C76.3071 28.0127 76.541 28.8878 76.541 29.8689C76.541 30.8434 76.3071 31.7251 75.846 32.5074C75.3848 33.2896 74.7433 33.8995 73.9213 34.3437C73.0993 34.7878 72.1837 35.0132 71.1679 35.0132C70.1387 35 69.2165 34.7746 68.4011 34.3304ZM73.1661 33.2167C73.7609 32.8786 74.2287 32.4212 74.5695 31.8312C74.9103 31.2412 75.0841 30.5849 75.0841 29.8557C75.0841 29.1264 74.9103 28.4701 74.5695 27.8801C74.2287 27.2901 73.7609 26.8327 73.1661 26.4946C72.5713 26.1565 71.903 25.9908 71.1612 25.9908C70.4194 25.9908 69.7444 26.1565 69.143 26.4946C68.5415 26.8327 68.067 27.2901 67.7262 27.8801C67.3853 28.4701 67.2116 29.1264 67.2116 29.8557C67.2116 30.5849 67.3853 31.2412 67.7262 31.8312C68.067 32.4212 68.5415 32.8852 69.143 33.2167C69.7444 33.5548 70.4194 33.7205 71.1612 33.7205C71.9097 33.7205 72.578 33.5548 73.1661 33.2167Z" fill="white"/>
<path d="M86.9802 24.8308V34.8808H85.53V30.3994H79.7158V34.8808H78.2656V24.8308H79.7158V29.1531H85.53V24.8308H86.9802Z" fill="white"/>
<path d="M46.6819 10.4717H45.1982V14.5023H46.6819V10.4717Z" fill="white"/>
<path d="M84.6541 9H80.5908V10.4717H84.6541V9Z" fill="white"/>
</g>
<defs>
<clipPath id="clip0_512_2510">
<rect width="30" height="43" fill="white"/>
</clipPath>
<clipPath id="clip1_512_2510">
<rect width="52" height="26" fill="white" transform="translate(35 9)"/>
</clipPath>
</defs>
</svg>
