<svg width="82" height="68" viewBox="0 0 82 68" fill="none" xmlns="http://www.w3.org/2000/svg">
<path d="M60 64.5H79V56.875C79 50.5581 73.8962 45.4375 67.6 45.4375C63.9687 45.4375 60.7338 47.1409 58.6464 49.7948L60 64.5ZM60 64.5H22H60ZM60 64.5V56.875C60 54.3732 59.5197 51.9836 58.6464 49.7948L60 64.5ZM22 64.5H3V56.875C3 50.5581 8.10397 45.4375 14.4 45.4375C18.0313 45.4375 21.2661 47.1409 23.3537 49.7948L22 64.5ZM22 64.5V56.875C22 54.3732 22.4804 51.9836 23.3537 49.7948L22 64.5ZM23.3537 49.7948C26.1553 42.7726 33.0003 37.8125 41 37.8125C48.9998 37.8125 55.8447 42.7726 58.6464 49.7948H23.3537ZM52.4 14.9375C52.4 21.2542 47.2962 26.375 41 26.375C34.7038 26.375 29.6 21.2542 29.6 14.9375C29.6 8.62076 34.7038 3.5 41 3.5C47.2962 3.5 52.4 8.62076 52.4 14.9375ZM75.2 26.375C75.2 30.5863 71.7975 34 67.6 34C63.4025 34 60 30.5863 60 26.375C60 22.1638 63.4025 18.75 67.6 18.75C71.7975 18.75 75.2 22.1638 75.2 26.375ZM22 26.375C22 30.5863 18.5974 34 14.4 34C10.2026 34 6.8 30.5863 6.8 26.375C6.8 22.1638 10.2026 18.75 14.4 18.75C18.5974 18.75 22 22.1638 22 26.375Z" stroke="#77B9F2" stroke-width="6" stroke-linecap="round" stroke-linejoin="round"/>
</svg>
