<svg width="148" height="174" viewBox="0 0 148 174" fill="none" xmlns="http://www.w3.org/2000/svg">
<path d="M72.6545 11.1658C72.6545 13.3742 71.9972 15.533 70.7657 17.3692C69.5342 19.2054 67.7838 20.6366 65.7359 21.4817C63.6879 22.3268 61.4345 22.548 59.2604 22.1171C57.0863 21.6863 55.0893 20.6228 53.5219 19.0613C51.9545 17.4997 50.8871 15.5101 50.4546 13.3442C50.0222 11.1782 50.2441 8.93314 51.0924 6.89285C51.9407 4.85256 53.3772 3.1087 55.2203 1.88178C57.0634 0.654864 59.2302 0 61.4469 0C64.4193 0 67.27 1.1764 69.3719 3.2704C71.4737 5.3644 72.6545 8.20447 72.6545 11.1658Z" fill="#042A3C"/>
<path d="M97.7702 11.1658C97.7702 13.3742 97.1129 15.533 95.8814 17.3692C94.6499 19.2054 92.8995 20.6366 90.8516 21.4817C88.8037 22.3268 86.5502 22.548 84.3761 22.1171C82.2021 21.6863 80.205 20.6228 78.6376 19.0613C77.0702 17.4997 76.0028 15.5101 75.5703 13.3442C75.1379 11.1782 75.3598 8.93314 76.2081 6.89285C77.0564 4.85256 78.4929 3.1087 80.336 1.88178C82.1791 0.654864 84.346 0 86.5626 0C89.5351 0 92.3858 1.1764 94.4876 3.2704C96.5894 5.3644 97.7702 8.20447 97.7702 11.1658Z" fill="#042A3C"/>
<path d="M122.884 36.4482C122.884 38.6566 122.227 40.8154 120.996 42.6516C119.764 44.4878 118.014 45.919 115.966 46.7641C113.918 47.6092 111.664 47.8303 109.49 47.3995C107.316 46.9686 105.319 45.9052 103.752 44.3436C102.184 42.782 101.117 40.7925 100.685 38.6265C100.252 36.4606 100.474 34.2155 101.322 32.1752C102.171 30.1349 103.607 28.391 105.45 27.1641C107.293 25.9372 109.46 25.2823 111.677 25.2823C114.649 25.2823 117.5 26.4587 119.602 28.5527C121.704 30.6467 122.884 33.4868 122.884 36.4482Z" fill="#042A3C"/>
<path d="M122.884 61.721C122.884 63.9294 122.227 66.0882 120.996 67.9244C119.764 69.7606 118.014 71.1918 115.966 72.0369C113.918 72.882 111.664 73.1031 109.49 72.6723C107.316 72.2415 105.319 71.178 103.752 69.6164C102.184 68.0549 101.117 66.0653 100.685 63.8994C100.252 61.7334 100.474 59.4883 101.322 57.448C102.171 55.4077 103.607 53.6639 105.45 52.437C107.293 51.21 109.46 50.5552 111.677 50.5552C114.649 50.5552 117.5 51.7316 119.602 53.8256C121.704 55.9196 122.884 58.7596 122.884 61.721Z" fill="#042A3C"/>
<path d="M122.884 112.272C122.884 114.481 122.227 116.639 120.996 118.476C119.764 120.312 118.014 121.743 115.966 122.588C113.918 123.433 111.664 123.654 109.49 123.223C107.316 122.793 105.319 121.729 103.752 120.168C102.184 118.606 101.117 116.616 100.685 114.45C100.252 112.285 100.474 110.039 101.322 107.999C102.171 105.959 103.607 104.215 105.45 102.988C107.293 101.761 109.46 101.106 111.677 101.106C114.649 101.106 117.5 102.283 119.602 104.377C121.704 106.471 122.884 109.311 122.884 112.272Z" fill="#042A3C"/>
<path d="M97.7702 112.272C97.7702 114.481 97.1129 116.639 95.8814 118.476C94.6499 120.312 92.8995 121.743 90.8516 122.588C88.8037 123.433 86.5502 123.654 84.3761 123.223C82.2021 122.793 80.205 121.729 78.6376 120.168C77.0702 118.606 76.0028 116.616 75.5703 114.45C75.1379 112.285 75.3598 110.039 76.2081 107.999C77.0564 105.959 78.4929 104.215 80.336 102.988C82.1791 101.761 84.346 101.106 86.5626 101.106C89.5351 101.106 92.3858 102.283 94.4876 104.377C96.5894 106.471 97.7702 109.311 97.7702 112.272Z" fill="#042A3C"/>
<path d="M97.7702 137.556C97.7702 139.764 97.1129 141.923 95.8814 143.759C94.6499 145.595 92.8995 147.027 90.8516 147.872C88.8037 148.717 86.5502 148.938 84.3761 148.507C82.2021 148.076 80.205 147.013 78.6376 145.451C77.0702 143.89 76.0028 141.9 75.5703 139.734C75.1379 137.568 75.3598 135.323 76.2081 133.283C77.0564 131.243 78.4929 129.499 80.336 128.272C82.1791 127.045 84.346 126.39 86.5626 126.39C89.535 126.39 92.3854 127.567 94.4872 129.661C96.589 131.755 97.7699 134.595 97.7702 137.556Z" fill="#042A3C"/>
<path d="M72.6545 112.272C72.6545 114.481 71.9972 116.639 70.7657 118.476C69.5342 120.312 67.7838 121.743 65.7359 122.588C63.6879 123.433 61.4345 123.654 59.2604 123.223C57.0863 122.793 55.0893 121.729 53.5219 120.168C51.9545 118.606 50.8871 116.616 50.4546 114.45C50.0222 112.285 50.2441 110.039 51.0924 107.999C51.9407 105.959 53.3772 104.215 55.2203 102.988C57.0634 101.761 59.2302 101.106 61.4469 101.106C64.4193 101.106 67.27 102.283 69.3719 104.377C71.4737 106.471 72.6545 109.311 72.6545 112.272Z" fill="#042A3C"/>
<path d="M72.6545 137.556C72.6545 139.764 71.9972 141.923 70.7657 143.759C69.5342 145.595 67.7838 147.027 65.7359 147.872C63.6879 148.717 61.4345 148.938 59.2604 148.507C57.0863 148.076 55.0893 147.013 53.5219 145.451C51.9545 143.89 50.8871 141.9 50.4546 139.734C50.0222 137.568 50.2441 135.323 51.0924 133.283C51.9407 131.243 53.3772 129.499 55.2203 128.272C57.0634 127.045 59.2302 126.39 61.4469 126.39C64.4193 126.39 67.27 127.566 69.3719 129.66C71.4737 131.754 72.6545 134.594 72.6545 137.556Z" fill="#042A3C"/>
<path d="M47.5429 112.272C47.5429 114.481 46.8856 116.639 45.6541 118.476C44.4226 120.312 42.6722 121.743 40.6243 122.588C38.5764 123.433 36.3229 123.654 34.1488 123.223C31.9748 122.793 29.9777 121.729 28.4103 120.168C26.8429 118.606 25.7755 116.616 25.343 114.45C24.9106 112.285 25.1325 110.039 25.9808 107.999C26.8291 105.959 28.2656 104.215 30.1087 102.988C31.9518 101.761 34.1187 101.106 36.3353 101.106C39.3078 101.106 42.1585 102.283 44.2603 104.377C46.3621 106.471 47.5429 109.311 47.5429 112.272Z" fill="#042A3C"/>
<path d="M47.5429 137.556C47.5429 139.764 46.8856 141.923 45.6541 143.759C44.4226 145.595 42.6722 147.027 40.6243 147.872C38.5764 148.717 36.3229 148.938 34.1488 148.507C31.9748 148.076 29.9777 147.013 28.4103 145.451C26.8429 143.89 25.7755 141.9 25.343 139.734C24.9106 137.568 25.1325 135.323 25.9808 133.283C26.8291 131.243 28.2656 129.499 30.1087 128.272C31.9518 127.045 34.1187 126.39 36.3353 126.39C39.3078 126.39 42.1585 127.566 44.2603 129.66C46.3621 131.754 47.5429 134.594 47.5429 137.556Z" fill="#042A3C"/>
<path d="M122.884 137.556C122.884 139.764 122.227 141.923 120.996 143.759C119.764 145.595 118.014 147.027 115.966 147.872C113.918 148.717 111.664 148.938 109.49 148.507C107.316 148.076 105.319 147.013 103.752 145.451C102.184 143.89 101.117 141.9 100.685 139.734C100.252 137.568 100.474 135.323 101.322 133.283C102.171 131.243 103.607 129.499 105.45 128.272C107.293 127.045 109.46 126.39 111.677 126.39C114.649 126.39 117.5 127.566 119.602 129.66C121.704 131.754 122.884 134.594 122.884 137.556Z" fill="#042A3C"/>
<path d="M148 137.556C148 139.764 147.343 141.923 146.111 143.759C144.88 145.595 143.129 147.027 141.081 147.872C139.033 148.717 136.78 148.938 134.606 148.507C132.432 148.076 130.435 147.013 128.867 145.451C127.3 143.89 126.233 141.9 125.8 139.734C125.368 137.568 125.59 135.323 126.438 133.283C127.286 131.243 128.723 129.499 130.566 128.272C132.409 127.045 134.576 126.39 136.792 126.39C139.765 126.39 142.616 127.566 144.717 129.66C146.819 131.754 148 134.594 148 137.556Z" fill="#042A3C"/>
<path d="M97.7702 162.834C97.77 165.043 97.1124 167.201 95.8808 169.037C94.6491 170.873 92.8986 172.304 90.8506 173.149C88.8027 173.994 86.5493 174.215 84.3753 173.784C82.2013 173.353 80.2044 172.289 78.6371 170.728C77.0699 169.166 76.0026 167.177 75.5702 165.011C75.1379 162.845 75.3599 160.6 76.2082 158.56C77.0566 156.519 78.4931 154.776 80.3361 153.549C82.1792 152.322 84.346 151.667 86.5626 151.667C89.5352 151.667 92.3859 152.844 94.4877 154.938C96.5895 157.032 97.7702 159.873 97.7702 162.834Z" fill="#042A3C"/>
<path d="M72.6545 162.834C72.6545 165.043 71.9972 167.201 70.7657 169.038C69.5342 170.874 67.7838 172.305 65.7359 173.15C63.6879 173.995 61.4345 174.216 59.2604 173.785C57.0863 173.355 55.0893 172.291 53.5219 170.73C51.9545 169.168 50.8871 167.178 50.4546 165.013C50.0222 162.847 50.2441 160.601 51.0924 158.561C51.9407 156.521 53.3772 154.777 55.2203 153.55C57.0634 152.323 59.2302 151.668 61.4469 151.668C62.9188 151.668 64.3763 151.957 65.7362 152.518C67.096 153.08 68.3316 153.902 69.3724 154.939C70.4131 155.976 71.2386 157.207 71.8018 158.562C72.3649 159.917 72.6547 161.369 72.6545 162.836" fill="#042A3C"/>
<path d="M47.5429 162.834C47.5429 165.042 46.8857 167.201 45.6544 169.037C44.4231 170.873 42.6729 172.304 40.6252 173.15C38.5775 173.995 36.3243 174.216 34.1503 173.786C31.9764 173.355 29.9793 172.292 28.4118 170.731C26.8442 169.17 25.7764 167.181 25.3435 165.015C24.9106 162.849 25.132 160.604 25.9797 158.564C26.8273 156.524 28.2632 154.779 30.1057 153.552C31.9483 152.325 34.1148 151.669 36.3313 151.668C37.8034 151.668 39.2612 151.956 40.6215 152.517C41.9817 153.078 43.2177 153.9 44.2589 154.937C45.3 155.974 46.1259 157.205 46.6894 158.56C47.2529 159.915 47.5429 161.368 47.5429 162.834Z" fill="#042A3C"/>
<path d="M122.884 162.834C122.884 165.043 122.227 167.201 120.995 169.037C119.763 170.873 118.013 172.304 115.965 173.149C113.917 173.994 111.664 174.215 109.49 173.784C107.316 173.353 105.319 172.289 103.751 170.728C102.184 169.166 101.117 167.177 100.684 165.011C100.252 162.845 100.474 160.6 101.323 158.56C102.171 156.519 103.607 154.776 105.45 153.549C107.293 152.322 109.46 151.667 111.677 151.667C113.149 151.667 114.606 151.956 115.966 152.517C117.326 153.078 118.562 153.901 119.602 154.938C120.643 155.975 121.469 157.206 122.032 158.561C122.595 159.916 122.885 161.368 122.884 162.834Z" fill="#042A3C"/>
<path d="M148 162.834C148 165.042 147.343 167.201 146.112 169.037C144.88 170.873 143.13 172.304 141.083 173.15C139.035 173.995 136.782 174.216 134.608 173.786C132.434 173.355 130.437 172.293 128.869 170.732C127.302 169.17 126.234 167.181 125.801 165.016C125.368 162.85 125.589 160.605 126.436 158.565C127.284 156.525 128.719 154.78 130.562 153.553C132.404 152.325 134.571 151.669 136.787 151.668C138.259 151.668 139.716 151.957 141.076 152.518C142.436 153.08 143.672 153.902 144.712 154.939C145.753 155.976 146.579 157.207 147.142 158.562C147.705 159.917 147.995 161.369 147.995 162.836" fill="#042A3C"/>
<path d="M97.7702 86.9993C97.7702 89.2077 97.1129 91.3665 95.8814 93.2027C94.6499 95.0389 92.8995 96.4701 90.8516 97.3152C88.8037 98.1603 86.5502 98.3814 84.3761 97.9506C82.2021 97.5198 80.205 96.4563 78.6376 94.8948C77.0702 93.3332 76.0028 91.3436 75.5703 89.1777C75.1379 87.0117 75.3598 84.7666 76.2081 82.7263C77.0564 80.6861 78.4929 78.9422 80.336 77.7153C82.1791 76.4884 84.346 75.8335 86.5626 75.8335C89.5351 75.8335 92.3858 77.0099 94.4876 79.1039C96.5894 81.1979 97.7702 84.038 97.7702 86.9993Z" fill="#042A3C"/>
<path d="M72.6545 86.9993C72.6545 89.2077 71.9972 91.3665 70.7657 93.2027C69.5342 95.0389 67.7838 96.4701 65.7359 97.3152C63.6879 98.1603 61.4345 98.3814 59.2604 97.9506C57.0863 97.5198 55.0893 96.4563 53.5219 94.8948C51.9545 93.3332 50.8871 91.3436 50.4546 89.1777C50.0222 87.0117 50.2441 84.7666 51.0924 82.7263C51.9407 80.6861 53.3772 78.9422 55.2203 77.7153C57.0634 76.4884 59.2302 75.8335 61.4469 75.8335C64.4193 75.8335 67.27 77.0099 69.3719 79.1039C71.4737 81.1979 72.6545 84.038 72.6545 86.9993Z" fill="#042A3C"/>
<path d="M47.5429 36.4482C47.5429 38.6566 46.8856 40.8154 45.6541 42.6516C44.4226 44.4878 42.6722 45.919 40.6243 46.7641C38.5764 47.6092 36.3229 47.8303 34.1488 47.3995C31.9748 46.9686 29.9777 45.9052 28.4103 44.3436C26.8429 42.782 25.7755 40.7925 25.343 38.6265C24.9106 36.4606 25.1325 34.2155 25.9808 32.1752C26.8291 30.1349 28.2656 28.391 30.1087 27.1641C31.9518 25.9372 34.1187 25.2823 36.3353 25.2823C39.3078 25.2823 42.1585 26.4587 44.2603 28.5527C46.3621 30.6467 47.5429 33.4868 47.5429 36.4482Z" fill="#042A3C"/>
<path d="M47.5429 61.721C47.5429 63.9294 46.8856 66.0882 45.6541 67.9244C44.4226 69.7606 42.6722 71.1918 40.6243 72.0369C38.5764 72.882 36.3229 73.1031 34.1488 72.6723C31.9748 72.2415 29.9777 71.178 28.4103 69.6164C26.8429 68.0549 25.7755 66.0653 25.343 63.8994C24.9106 61.7334 25.1325 59.4883 25.9808 57.448C26.8291 55.4077 28.2656 53.6639 30.1087 52.437C31.9518 51.21 34.1187 50.5552 36.3353 50.5552C39.3078 50.5552 42.1585 51.7316 44.2603 53.8256C46.3621 55.9196 47.5429 58.7596 47.5429 61.721Z" fill="#042A3C"/>
<path d="M22.4153 137.556C22.4153 139.764 21.7579 141.923 20.5264 143.759C19.2949 145.595 17.5445 147.027 15.4966 147.872C13.4487 148.717 11.1952 148.938 9.02113 148.507C6.84706 148.076 4.85006 147.013 3.28264 145.451C1.71523 143.89 0.647805 141.9 0.215356 139.734C-0.217093 137.568 0.00485751 135.323 0.853136 133.283C1.70142 131.243 3.13792 129.499 4.98101 128.272C6.82409 127.045 8.99097 126.39 11.2076 126.39C14.1801 126.39 17.0308 127.566 19.1326 129.66C21.2345 131.754 22.4153 134.594 22.4153 137.556Z" fill="#042A3C"/>
<path d="M22.4153 162.834C22.4153 165.043 21.7579 167.201 20.5264 169.038C19.2949 170.874 17.5445 172.305 15.4966 173.15C13.4487 173.995 11.1952 174.216 9.02113 173.785C6.84706 173.355 4.85006 172.291 3.28264 170.73C1.71523 169.168 0.647805 167.178 0.215356 165.013C-0.217093 162.847 0.00485751 160.601 0.853136 158.561C1.70142 156.521 3.13792 154.777 4.98101 153.55C6.82409 152.323 8.99097 151.668 11.2076 151.668C12.6796 151.668 14.1371 151.957 15.4969 152.518C16.8568 153.08 18.0924 153.902 19.1331 154.939C20.1738 155.976 20.9994 157.207 21.5625 158.562C22.1257 159.917 22.4154 161.369 22.4153 162.836" fill="#042A3C"/>
</svg>
