<svg width="123" height="175" viewBox="0 0 123 175" fill="none" xmlns="http://www.w3.org/2000/svg">
<path d="M47.4079 11.1789C47.4079 13.3897 46.7524 15.5508 45.5243 17.3891C44.2962 19.2273 42.5506 20.6601 40.5082 21.5064C38.4659 22.3527 36.2184 22.5744 34.0501 22.1435C31.8817 21.7126 29.8898 20.6484 28.3262 19.0855C26.7626 17.5227 25.6975 15.5313 25.2655 13.3631C24.8336 11.195 25.0542 8.94746 25.8995 6.90469C26.7447 4.86191 28.1767 3.11562 30.0144 1.88662C31.852 0.657609 34.0128 0.00106851 36.2236 0C39.1884 0 42.0318 1.17778 44.1283 3.27423C46.2248 5.37069 47.4025 8.2141 47.4025 11.1789" fill="#042A3C"/>
<path d="M22.3579 11.1789C22.3579 13.3899 21.7022 15.5513 20.4739 17.3896C19.2455 19.228 17.4996 20.6608 15.4569 21.5069C13.4143 22.353 11.1665 22.5744 8.99804 22.1431C6.82954 21.7117 4.83764 20.647 3.27424 19.0836C1.71083 17.5202 0.646149 15.5283 0.214807 13.3598C-0.216535 11.1913 0.00483896 8.94363 0.850946 6.90095C1.69705 4.85826 3.12989 3.11235 4.96826 1.88399C6.80663 0.655633 8.96796 0 11.1789 0C14.1438 0 16.9872 1.17778 19.0836 3.27423C21.1801 5.37069 22.3579 8.2141 22.3579 11.1789Z" fill="#042A3C"/>
<path d="M72.4592 11.1789C72.4592 13.3899 71.8036 15.5513 70.5752 17.3896C69.3468 19.228 67.6009 20.6608 65.5583 21.5069C63.5156 22.353 61.2679 22.5744 59.0994 22.1431C56.9309 21.7117 54.939 20.647 53.3756 19.0836C51.8122 17.5202 50.7475 15.5283 50.3161 13.3598C49.8848 11.1913 50.1062 8.94363 50.9523 6.90095C51.7984 4.85826 53.2312 3.11235 55.0696 1.88399C56.9079 0.655633 59.0693 0 61.2803 0C64.2451 0 67.0885 1.17778 69.185 3.27423C71.2814 5.37069 72.4592 8.2141 72.4592 11.1789Z" fill="#042A3C"/>
<path d="M97.5105 11.1789C97.5105 13.3902 96.8547 15.5517 95.6261 17.3902C94.3975 19.2287 92.6513 20.6615 90.6083 21.5074C88.5653 22.3534 86.3173 22.5745 84.1486 22.1427C81.98 21.7109 79.9881 20.6457 78.4249 19.0817C76.8617 17.5178 75.7975 15.5254 75.3667 13.3565C74.936 11.1877 75.1582 8.93979 76.0051 6.8972C76.852 4.85461 78.2857 3.10907 80.1248 1.88137C81.9639 0.653658 84.1257 -0.00106743 86.3369 1.30632e-06C89.3018 1.30632e-06 92.1452 1.17778 94.2416 3.27424C96.3381 5.37069 97.5159 8.2141 97.5159 11.1789" fill="#042A3C"/>
<path d="M22.3579 36.4869C22.3579 38.6979 21.7022 40.8592 20.4739 42.6976C19.2455 44.536 17.4996 45.9688 15.4569 46.8149C13.4143 47.661 11.1665 47.8824 8.99804 47.4511C6.82954 47.0197 4.83764 45.955 3.27424 44.3916C1.71083 42.8282 0.646149 40.8363 0.214807 38.6678C-0.216535 36.4993 0.00483896 34.2516 0.850946 32.2089C1.69705 30.1663 3.12989 28.4203 4.96826 27.192C6.80663 25.9636 8.96796 25.308 11.1789 25.308C14.1438 25.308 16.9872 26.4858 19.0836 28.5822C21.1801 30.6787 22.3579 33.5221 22.3579 36.4869Z" fill="#042A3C"/>
<path d="M122.561 36.4869C122.561 38.6979 121.905 40.8592 120.677 42.6976C119.448 44.536 117.702 45.9688 115.66 46.8149C113.617 47.661 111.369 47.8824 109.201 47.4511C107.032 47.0197 105.04 45.955 103.477 44.3916C101.913 42.8282 100.849 40.8363 100.417 38.6678C99.9861 36.4993 100.207 34.2516 101.054 32.2089C101.9 30.1663 103.333 28.4203 105.171 27.192C107.009 25.9636 109.171 25.308 111.382 25.308C114.346 25.308 117.19 26.4858 119.286 28.5822C121.383 30.6787 122.561 33.5221 122.561 36.4869Z" fill="#042A3C"/>
<path d="M122.561 11.1789C122.561 13.3899 121.905 15.5513 120.677 17.3896C119.448 19.228 117.702 20.6608 115.66 21.5069C113.617 22.353 111.369 22.5744 109.201 22.1431C107.032 21.7117 105.04 20.647 103.477 19.0836C101.913 17.5202 100.849 15.5283 100.417 13.3598C99.9861 11.1913 100.207 8.94363 101.054 6.90095C101.9 4.85826 103.333 3.11235 105.171 1.88399C107.009 0.655633 109.171 0 111.382 0C114.346 0 117.19 1.17778 119.286 3.27423C121.383 5.37069 122.561 8.2141 122.561 11.1789Z" fill="#042A3C"/>
<path d="M22.3579 61.7989C22.3579 64.0099 21.7022 66.1713 20.4739 68.0096C19.2455 69.848 17.4996 71.2808 15.4569 72.1269C13.4143 72.973 11.1665 73.1944 8.99804 72.7631C6.82954 72.3317 4.83764 71.267 3.27424 69.7036C1.71083 68.1402 0.646149 66.1483 0.214807 63.9798C-0.216535 61.8113 0.00483896 59.5636 0.850946 57.5209C1.69705 55.4783 3.12989 53.7323 4.96826 52.504C6.80663 51.2756 8.96796 50.62 11.1789 50.62C14.1437 50.6204 16.9869 51.7982 19.0833 53.8946C21.1796 55.991 22.3575 58.8342 22.3579 61.7989Z" fill="#042A3C"/>
<path d="M22.3579 112.409C22.3579 114.62 21.7022 116.782 20.4739 118.62C19.2455 120.458 17.4996 121.891 15.4569 122.737C13.4143 123.583 11.1665 123.805 8.99804 123.374C6.82954 122.942 4.83764 121.878 3.27424 120.314C1.71083 118.751 0.646149 116.759 0.214807 114.59C-0.216535 112.422 0.00483896 110.174 0.850946 108.131C1.69705 106.089 3.12989 104.343 4.96826 103.114C6.80663 101.886 8.96796 101.23 11.1789 101.23C14.1438 101.23 16.9872 102.408 19.0836 104.505C21.1801 106.601 22.3579 109.445 22.3579 112.409Z" fill="#042A3C"/>
<path d="M22.3579 87.1029C22.3576 89.3138 21.7018 91.475 20.4732 93.3132C19.2447 95.1514 17.4987 96.584 15.456 97.4299C13.4133 98.2758 11.1656 98.497 8.99721 98.0655C6.8288 97.634 4.83703 96.5692 3.27376 95.0058C1.71049 93.4423 0.64594 91.4504 0.214707 89.2819C-0.216525 87.1135 0.00493061 84.8658 0.851078 82.8232C1.69722 80.7806 3.13006 79.0348 4.9684 77.8065C6.80674 76.5782 8.96802 75.9226 11.1789 75.9226C14.1439 75.923 16.9873 77.101 19.0837 79.1977C21.1801 81.2944 22.3579 84.1379 22.3579 87.1029Z" fill="#042A3C"/>
<path d="M122.561 61.7989C122.561 64.0099 121.905 66.1713 120.677 68.0096C119.448 69.848 117.702 71.2808 115.66 72.1269C113.617 72.973 111.369 73.1944 109.201 72.7631C107.032 72.3317 105.04 71.267 103.477 69.7036C101.913 68.1402 100.849 66.1483 100.417 63.9798C99.9861 61.8113 100.207 59.5636 101.054 57.5209C101.9 55.4783 103.333 53.7323 105.171 52.504C107.009 51.2756 109.171 50.62 111.382 50.62C114.346 50.62 117.19 51.7978 119.286 53.8942C121.383 55.9907 122.561 58.8341 122.561 61.7989Z" fill="#042A3C"/>
<path d="M122.561 87.1029C122.56 89.3138 121.904 91.475 120.676 93.3132C119.447 95.1514 117.701 96.584 115.659 97.4299C113.616 98.2758 111.368 98.497 109.2 98.0655C107.031 97.634 105.04 96.5692 103.476 95.0058C101.913 93.4423 100.849 91.4504 100.417 89.2819C99.9861 87.1135 100.208 84.8658 101.054 82.8232C101.9 80.7806 103.333 79.0348 105.171 77.8065C107.009 76.5782 109.171 75.9226 111.382 75.9226C112.85 75.9226 114.303 76.2118 115.66 76.7737C117.016 77.3356 118.249 78.1591 119.287 79.1973C120.325 80.2355 121.148 81.468 121.71 82.8245C122.272 84.1809 122.561 85.6347 122.561 87.1029Z" fill="#042A3C"/>
<path d="M122.561 112.409C122.561 114.62 121.905 116.782 120.677 118.62C119.448 120.458 117.702 121.891 115.66 122.737C113.617 123.583 111.369 123.805 109.201 123.374C107.032 122.942 105.04 121.878 103.477 120.314C101.913 118.751 100.849 116.759 100.417 114.59C99.9861 112.422 100.207 110.174 101.054 108.131C101.9 106.089 103.333 104.343 105.171 103.114C107.009 101.886 109.171 101.23 111.382 101.23C114.346 101.23 117.19 102.408 119.286 104.505C121.383 106.601 122.561 109.445 122.561 112.409Z" fill="#042A3C"/>
<path d="M22.3579 137.712C22.3579 139.923 21.7022 142.084 20.4739 143.923C19.2455 145.761 17.4996 147.194 15.4569 148.04C13.4143 148.886 11.1665 149.107 8.99804 148.676C6.82954 148.245 4.83764 147.18 3.27424 145.617C1.71083 144.053 0.646149 142.061 0.214807 139.893C-0.216535 137.724 0.00483896 135.477 0.850946 133.434C1.69705 131.391 3.12989 129.645 4.96826 128.417C6.80663 127.189 8.96796 126.533 11.1789 126.533C14.1438 126.533 16.9872 127.711 19.0836 129.807C21.1801 131.904 22.3579 134.747 22.3579 137.712Z" fill="#042A3C"/>
<path d="M22.3579 163.025C22.3579 165.236 21.7022 167.398 20.4739 169.236C19.2455 171.074 17.4996 172.507 15.4569 173.353C13.4143 174.199 11.1665 174.421 8.99804 173.99C6.82954 173.558 4.83764 172.493 3.27424 170.93C1.71083 169.367 0.646149 167.375 0.214807 165.206C-0.216535 163.038 0.00483896 160.79 0.850946 158.747C1.69705 156.705 3.12989 154.959 4.96826 153.73C6.80663 152.502 8.96796 151.846 11.1789 151.846C14.1437 151.847 16.9869 153.025 19.0833 155.121C21.1796 157.217 22.3575 160.061 22.3579 163.025Z" fill="#042A3C"/>
<path d="M47.4079 87.1029C47.4077 89.3136 46.7519 91.4746 45.5237 93.3127C44.2954 95.1507 42.5497 96.5833 40.5073 97.4294C38.4649 98.2755 36.2175 98.497 34.0492 98.0659C31.881 97.6349 29.8892 96.5706 28.3257 95.0077C26.7622 93.4448 25.6973 91.4534 25.2654 89.2853C24.8336 87.1172 25.0543 84.8697 25.8996 82.827C26.7449 80.7843 28.1769 79.0381 30.0145 77.8091C31.8521 76.5802 34.0129 75.9237 36.2236 75.9226C37.6917 75.9226 39.1455 76.2118 40.5019 76.7737C41.8583 77.3356 43.0907 78.1591 44.1288 79.1973C45.1668 80.2355 45.9903 81.468 46.552 82.8245C47.1137 84.1809 47.4027 85.6347 47.4025 87.1029" fill="#042A3C"/>
<path d="M72.4592 36.4869C72.4592 38.6979 71.8036 40.8592 70.5752 42.6976C69.3468 44.536 67.6009 45.9688 65.5583 46.8149C63.5156 47.661 61.2679 47.8824 59.0994 47.4511C56.9309 47.0197 54.939 45.955 53.3756 44.3916C51.8122 42.8282 50.7475 40.8363 50.3161 38.6678C49.8848 36.4993 50.1062 34.2516 50.9523 32.2089C51.7984 30.1663 53.2312 28.4203 55.0696 27.192C56.9079 25.9636 59.0693 25.308 61.2803 25.308C64.2451 25.308 67.0885 26.4858 69.185 28.5822C71.2814 30.6787 72.4592 33.5221 72.4592 36.4869Z" fill="#042A3C"/>
<path d="M72.4592 61.7989C72.4592 64.0099 71.8036 66.1713 70.5752 68.0096C69.3468 69.848 67.6009 71.2808 65.5583 72.1269C63.5156 72.973 61.2679 73.1944 59.0994 72.7631C56.9309 72.3317 54.939 71.267 53.3756 69.7036C51.8122 68.1402 50.7475 66.1483 50.3161 63.9798C49.8848 61.8113 50.1062 59.5636 50.9523 57.5209C51.7984 55.4783 53.2312 53.7323 55.0696 52.504C56.9079 51.2756 59.0693 50.62 61.2803 50.62C64.2451 50.62 67.0885 51.7978 69.185 53.8942C71.2814 55.9907 72.4592 58.8341 72.4592 61.7989Z" fill="#042A3C"/>
<path d="M72.4592 112.409C72.4592 114.62 71.8036 116.782 70.5752 118.62C69.3468 120.458 67.6009 121.891 65.5583 122.737C63.5156 123.583 61.2679 123.805 59.0994 123.374C56.9309 122.942 54.939 121.878 53.3756 120.314C51.8122 118.751 50.7475 116.759 50.3161 114.59C49.8848 112.422 50.1062 110.174 50.9523 108.131C51.7984 106.089 53.2312 104.343 55.0696 103.114C56.9079 101.886 59.0693 101.23 61.2803 101.23C64.2451 101.23 67.0885 102.408 69.185 104.505C71.2814 106.601 72.4592 109.445 72.4592 112.409Z" fill="#042A3C"/>
<path d="M72.4592 87.1029C72.4589 89.3138 71.8031 91.475 70.5746 93.3132C69.346 95.1514 67.6 96.584 65.5573 97.4299C63.5146 98.2758 61.2669 98.497 59.0985 98.0655C56.9301 97.634 54.9384 96.5692 53.3751 95.0058C51.8118 93.4423 50.7473 91.4504 50.316 89.2819C49.8848 87.1135 50.1063 84.8658 50.9524 82.8232C51.7985 80.7806 53.2314 79.0348 55.0697 77.8065C56.9081 76.5782 59.0693 75.9226 61.2803 75.9226C62.7484 75.9226 64.2022 76.2118 65.5586 76.7737C66.915 77.3356 68.1474 78.1591 69.1854 79.1973C70.2235 80.2355 71.0469 81.468 71.6086 82.8245C72.1704 84.1809 72.4594 85.6347 72.4592 87.1029Z" fill="#042A3C"/>
<path d="M72.4592 137.712C72.4592 139.923 71.8036 142.084 70.5752 143.923C69.3468 145.761 67.6009 147.194 65.5583 148.04C63.5156 148.886 61.2679 149.107 59.0994 148.676C56.9309 148.245 54.939 147.18 53.3756 145.617C51.8122 144.053 50.7475 142.061 50.3161 139.893C49.8848 137.724 50.1062 135.477 50.9523 133.434C51.7984 131.391 53.2312 129.645 55.0696 128.417C56.9079 127.189 59.0693 126.533 61.2803 126.533C64.2451 126.533 67.0885 127.711 69.185 129.807C71.2814 131.904 72.4592 134.747 72.4592 137.712Z" fill="#042A3C"/>
<path d="M97.5105 87.1029C97.5102 89.3141 96.8542 91.4755 95.6254 93.3138C94.3967 95.1521 92.6504 96.5847 90.6073 97.4304C88.5643 98.2762 86.3164 98.4971 84.1478 98.0651C81.9793 97.6332 79.9875 96.5679 78.4244 95.0039C76.8614 93.4399 75.7973 91.4475 75.3666 89.2786C74.936 87.1098 75.1583 84.862 76.0052 82.8195C76.8522 80.777 78.2859 79.0315 80.1249 77.8039C81.964 76.5762 84.1258 75.9215 86.3369 75.9226C89.3019 75.923 92.1453 77.101 94.2417 79.1977C96.3381 81.2944 97.5159 84.1379 97.5159 87.1029" fill="#042A3C"/>
<path d="M122.561 137.712C122.561 139.923 121.905 142.084 120.677 143.923C119.448 145.761 117.702 147.194 115.66 148.04C113.617 148.886 111.369 149.107 109.201 148.676C107.032 148.245 105.04 147.18 103.477 145.617C101.913 144.053 100.849 142.061 100.417 139.893C99.9861 137.724 100.207 135.477 101.054 133.434C101.9 131.391 103.333 129.645 105.171 128.417C107.009 127.189 109.171 126.533 111.382 126.533C114.346 126.533 117.19 127.711 119.286 129.807C121.383 131.904 122.561 134.747 122.561 137.712Z" fill="#042A3C"/>
<path d="M122.561 163.025C122.561 165.236 121.905 167.398 120.677 169.236C119.448 171.074 117.702 172.507 115.66 173.353C113.617 174.199 111.369 174.421 109.201 173.99C107.032 173.558 105.04 172.493 103.477 170.93C101.913 169.367 100.849 167.375 100.417 165.206C99.9861 163.038 100.207 160.79 101.054 158.747C101.9 156.705 103.333 154.959 105.171 153.73C107.009 152.502 109.171 151.846 111.382 151.846C114.346 151.846 117.19 153.024 119.286 155.121C121.383 157.217 122.561 160.061 122.561 163.025Z" fill="#042A3C"/>
<path d="M47.4079 163.025C47.4079 165.236 46.7524 167.397 45.5243 169.236C44.2962 171.074 42.5506 172.507 40.5082 173.353C38.4659 174.199 36.2184 174.421 34.0501 173.99C31.8817 173.559 29.8898 172.495 28.3262 170.932C26.7626 169.369 25.6975 167.378 25.2655 165.21C24.8336 163.041 25.0542 160.794 25.8995 158.751C26.7447 156.708 28.1767 154.962 30.0144 153.733C31.852 152.504 34.0128 151.848 36.2236 151.846C39.1884 151.846 42.0318 153.024 44.1283 155.121C46.2248 157.217 47.4025 160.061 47.4025 163.025" fill="#042A3C"/>
<path d="M72.4592 163.025C72.4592 165.236 71.8036 167.398 70.5752 169.236C69.3468 171.074 67.6009 172.507 65.5583 173.353C63.5156 174.199 61.2679 174.421 59.0994 173.99C56.9309 173.558 54.939 172.493 53.3756 170.93C51.8122 169.367 50.7475 167.375 50.3161 165.206C49.8848 163.038 50.1062 160.79 50.9523 158.747C51.7984 156.705 53.2312 154.959 55.0696 153.73C56.9079 152.502 59.0693 151.846 61.2803 151.846C64.2451 151.846 67.0885 153.024 69.185 155.121C71.2814 157.217 72.4592 160.061 72.4592 163.025Z" fill="#042A3C"/>
<path d="M97.5105 163.025C97.5105 165.236 96.8548 167.398 95.6265 169.236C94.3981 171.074 92.6522 172.507 90.6095 173.353C88.5668 174.199 86.3191 174.421 84.1506 173.99C81.9821 173.558 79.9902 172.493 78.4268 170.93C76.8634 169.367 75.7987 167.375 75.3674 165.206C74.936 163.038 75.1574 160.79 76.0035 158.747C76.8497 156.705 78.2825 154.959 80.1208 153.73C81.9592 152.502 84.1205 151.846 86.3315 151.846C89.2963 151.847 92.1395 153.025 94.2358 155.121C96.3322 157.217 97.5101 160.061 97.5105 163.025Z" fill="#042A3C"/>
</svg>
